<?xml version="1.0" standalone="no"?>
<!DOCTYPE svg PUBLIC "-//W3C//DTD SVG 20010904//EN"
 "http://www.w3.org/TR/2001/REC-SVG-20010904/DTD/svg10.dtd">
<svg version="1.0" xmlns="http://www.w3.org/2000/svg"
 width="192.000000pt" height="192.000000pt" viewBox="0 0 192.000000 192.000000"
 preserveAspectRatio="xMidYMid meet">
<metadata>
Created by potrace 1.11, written by Peter Selinger 2001-2013
</metadata>
<g transform="translate(0.000000,192.000000) scale(0.100000,-0.100000)"
fill="#000000" stroke="none">
<path d="M1299 1706 c-2 -2 -32 -7 -67 -10 -34 -4 -72 -10 -85 -15 -12 -5 -25
-9 -30 -9 -4 0 -33 -6 -65 -13 -31 -7 -59 -13 -62 -14 -3 0 -9 -3 -15 -6 -5
-3 -19 -9 -30 -12 l-20 -7 20 16 c19 16 19 16 -5 9 -14 -4 -63 -21 -110 -36
-47 -16 -89 -31 -95 -32 -5 -2 -23 -10 -40 -19 -16 -9 -59 -32 -95 -51 -75
-39 -248 -141 -335 -196 -43 -28 -59 -43 -57 -57 3 -15 1 -16 -11 -6 -11 10
-17 9 -27 -3 -7 -9 -8 -15 -2 -15 6 0 13 6 15 13 4 8 6 9 6 0 1 -6 -6 -18 -14
-26 -8 -8 -12 -17 -9 -19 9 -10 13 -48 5 -53 -12 -7 -1 -55 13 -55 14 0 19
-47 6 -55 -6 -3 -10 -14 -10 -24 0 -10 -9 -26 -20 -36 -11 -10 -20 -23 -20
-29 0 -6 5 -4 10 4 5 8 10 11 10 6 0 -5 7 -3 15 4 12 10 15 10 15 -1 -1 -21
-32 -55 -71 -74 -37 -20 -100 -71 -98 -81 0 -4 -4 -10 -10 -13 -6 -4 4 -22 26
-44 35 -36 35 -38 18 -57 -26 -29 -10 -37 30 -16 33 18 85 30 85 19 0 -3 -14
-30 -31 -61 -21 -39 -27 -57 -18 -62 8 -6 8 -13 0 -28 -8 -15 -8 -21 2 -25 9
-3 9 -9 0 -25 -11 -18 -10 -22 9 -27 12 -4 24 -2 28 5 5 8 10 8 14 2 3 -5 -1
-13 -10 -16 -8 -3 -12 -11 -9 -16 4 -7 19 -4 41 10 44 25 58 25 51 0 -7 -27 2
-30 54 -19 75 18 78 18 85 8 3 -6 20 -7 37 -4 26 6 30 5 20 -6 -20 -20 -15
-46 11 -66 18 -15 22 -23 14 -36 -5 -10 -6 -26 -3 -37 4 -13 1 -22 -9 -26 -8
-3 -17 -12 -20 -20 -8 -22 30 -15 76 13 21 13 42 23 47 23 10 0 25 -28 26 -50
0 -12 12 -15 50 -13 118 5 173 11 193 22 29 16 37 14 21 -6 -13 -15 -12 -15 8
-5 12 7 32 26 44 43 20 29 93 71 129 75 21 2 150 49 183 66 15 9 45 14 67 12
23 -2 40 1 40 8 0 5 6 8 14 5 8 -3 31 7 52 24 38 30 68 35 198 30 26 -1 54 4
62 10 7 6 18 8 23 5 18 -12 21 11 7 58 -16 52 -15 54 57 80 26 10 47 24 47 32
0 8 5 14 10 14 6 0 10 4 10 9 0 5 -9 7 -20 4 -15 -4 -22 2 -30 22 -13 35 -13
35 10 35 11 0 20 5 20 11 0 5 -4 8 -9 5 -10 -6 -52 36 -55 55 -1 8 -5 19 -9
25 -4 7 9 17 35 27 32 13 39 20 35 36 -5 21 31 53 80 72 20 7 24 12 14 18 -17
11 -4 34 14 27 15 -5 25 14 25 50 0 25 -2 25 -75 28 -16 1 -36 5 -42 9 -7 5
-17 6 -22 3 -5 -3 -11 4 -14 15 -3 12 -10 19 -14 16 -5 -3 -15 -2 -23 3 -11 7
-7 11 18 16 17 4 32 10 32 15 0 12 -78 4 -139 -15 -30 -9 -57 -13 -60 -10 -9
9 21 23 37 16 10 -3 13 -1 8 6 -7 12 14 20 62 24 34 2 37 5 24 25 -6 10 -17
10 -46 2 -25 -7 -42 -7 -48 -1 -17 17 44 41 112 44 8 0 21 5 27 10 7 6 19 8
26 5 8 -3 14 1 14 9 0 7 -4 11 -9 8 -5 -3 -15 0 -23 6 -8 7 -15 10 -15 7 0 -4
-18 0 -39 8 -22 7 -41 12 -43 11 -1 -2 -21 -7 -43 -10 -27 -5 -37 -4 -30 2 6
6 26 13 45 17 63 11 105 17 133 18 28 1 39 17 12 17 -8 0 -15 5 -15 11 0 5 5
7 10 4 6 -3 10 -1 10 4 0 6 -11 12 -25 12 -43 2 -46 3 -63 25 -18 23 -98 40
-104 22 -8 -23 -34 4 -33 35 1 34 -13 72 -22 63 -4 -3 -12 -1 -20 5 -7 6 -13
9 -13 5 0 -3 -16 1 -36 9 -20 8 -41 12 -47 8 -6 -4 -8 0 -4 9 3 9 0 21 -6 27
-9 10 -7 16 7 27 19 14 19 14 -2 14 -12 0 -22 6 -22 14 0 18 -75 37 -91 22z
m-1010 -399 c-2 -1 -13 -9 -24 -17 -19 -14 -19 -14 -6 3 7 9 18 17 24 17 6 0
8 -1 6 -3z m-49 -37 c0 -5 -5 -10 -11 -10 -5 0 -7 5 -4 10 3 6 8 10 11 10 2 0
4 -4 4 -10z"/>
</g>
</svg>
